<?xml version="1.0"?>
<svg width="37.631" height="38.033" xmlns="http://www.w3.org/2000/svg">
 <g>
  <title>background</title>
  <rect x="-1" y="-1" width="582" height="402" id="canvas_background" fill="none"/>
 </g>
 <g>
  <title>Layer 1</title>
  <g opacity="0.25" id="svg_1">
   <path fill="#aad4ff" d="m39.963001,14.593c0.003998,2.542999 -0.420002,5.098999 -1.273003,7.535c-0.856998,2.438 -2.126999,4.768 -3.800999,6.858999c-1.683998,2.086 -3.761999,3.947002 -6.201,5.390999c-1.221001,0.719002 -2.52,1.361 -3.896,1.852001c-1.372999,0.496002 -2.816,0.855 -4.299,1.074001c-2.961,0.433998 -6.126,0.306999 -9.193,-0.527c-1.525001,-0.425999 -3.041,-0.990002 -4.466,-1.751999c-1.428,-0.756001 -2.811,-1.646 -4.058,-2.719002c-2.528,-2.101999 -4.622,-4.809 -6.042,-7.871c-1.428,-3.059 -2.167,-6.469 -2.163,-9.844c-0.003,-3.375 0.75,-6.783 2.18,-9.835c0.353,-0.767 0.754,-1.508 1.191,-2.223c0.433,-0.718 0.907,-1.409 1.418,-2.067c0.255,-0.33 0.516,-0.653 0.785,-0.969c0.275,-0.313 0.558,-0.617 0.846,-0.914c0.577,-0.593 1.18,-1.155 1.807,-1.685c2.515,-2.113 5.460001,-3.625 8.516,-4.458c1.526,-0.421 3.089,-0.649 4.628,-0.737c0.770999,-0.041 1.539001,-0.043 2.297999,-0.008c0.380001,0.017 0.757999,0.044001 1.132,0.081l0.562,0.061l0.58,0.075l0.233999,0.042001l0.293001,0.046c0.188999,0.032 0.368999,0.065 0.552999,0.102c0.365,0.071 0.726999,0.153 1.084,0.243c0.717001,0.178 1.422001,0.392 2.109001,0.638c1.375,0.487 2.67,1.131 3.890999,1.842c1.225,0.711 2.342001,1.56 3.386999,2.448c1.041,0.896 1.963001,1.902 2.814003,2.93c1.675999,2.091 2.951,4.417 3.806999,6.853c0.855,2.437 1.280998,4.987999 1.277,7.537l0,0zm-0.762001,-0.003c-0.006001,-2.45 -0.495998,-4.896 -1.443001,-7.152c-0.943001,-2.257 -2.34,-4.321 -4.074001,-6.041c-1.735998,-1.722 -3.819998,-3.079 -6.075998,-3.99c-2.257999,-0.913 -4.685999,-1.366 -7.121,-1.34c-2.417999,0.021 -4.837999,0.521 -7.058999,1.47c-2.224,0.944 -4.246,2.339 -5.939001,4.05c-1.697,1.709 -3.055,3.751 -3.967,5.975c-0.913,2.223 -1.375,4.626 -1.366,7.028c-0.008,2.402 0.453,4.805 1.367,7.027c0.911,2.224998 2.269,4.265999 3.965,5.974998c1.695,1.709002 3.714,3.107 5.940001,4.051001c2.221999,0.947001 4.635999,1.447001 7.062999,1.469c2.426001,0.025002 4.859001,-0.425999 7.115002,-1.337999s4.339998,-2.27 6.075998,-3.992001c1.734001,-1.719 3.131001,-3.782999 4.074001,-6.039c0.946999,-2.257999 1.438,-4.698 1.443001,-7.155l0,0.002l0.001999,0z" id="svg_2"/>
   <path fill="#aad4ff" d="m2.971,12.382c-0.004,-1.749 0.289,-3.505 0.875,-5.181c0.589,-1.673 1.461,-3.276 2.614,-4.714c1.155,-1.434 2.583,-2.713 4.262,-3.707c0.839,-0.493 1.732,-0.935 2.679,-1.271c0.945,-0.341 1.938,-0.589 2.957,-0.74c2.035,-0.298 4.211,-0.21 6.319,0.363c1.049,0.293 2.09,0.681 3.07,1.206c0.984001,0.519 1.934,1.131 2.791,1.867c1.736,1.447 3.177999,3.306 4.151999,5.413c0.982002,2.102 1.490002,4.446 1.488003,6.767c0.001999,2.32 -0.516003,4.663 -1.5,6.763c-0.242001,0.526999 -0.518002,1.035 -0.820002,1.526999c-0.295,0.492001 -0.622999,0.969002 -0.975,1.422001c-0.174,0.226999 -0.355,0.448999 -0.539,0.664c-0.188999,0.217001 -0.382999,0.426001 -0.577999,0.629c-0.400002,0.408001 -0.812,0.797001 -1.244001,1.158001c-1.73,1.452999 -3.754,2.492001 -5.855,3.066c-1.049,0.289 -2.122999,0.445 -3.181,0.506001c-0.531,0.026999 -1.059,0.030998 -1.58,0.005999c-0.261,-0.01 -0.521,-0.031 -0.778999,-0.055l-0.386002,-0.042999l-0.399,-0.051001l-0.160999,-0.028999l-0.202,-0.031c-0.13,-0.023001 -0.253,-0.045 -0.379,-0.07c-0.25,-0.049 -0.5,-0.105 -0.746,-0.166c-0.493,-0.122999 -0.978,-0.27 -1.449,-0.438c-0.946,-0.336 -1.837,-0.778999 -2.676,-1.268c-0.842,-0.488001 -1.609,-1.073999 -2.328,-1.684c-0.717,-0.617001 -1.349,-1.309 -1.937,-2.014c-1.151,-1.438 -2.028,-3.037001 -2.616,-4.712c-0.588,-1.674001 -0.881,-3.429001 -0.877,-5.181001l0,-0.002zm0.521,0.002c0.006,1.686 0.342,3.367001 0.994,4.917001c0.649,1.552999 1.609,2.970999 2.802,4.151999c1.191999,1.184 2.625999,2.117001 4.177,2.746c1.552,0.627001 3.222,0.938 4.895,0.922001c1.664,-0.016001 3.327,-0.359001 4.854,-1.014c1.531,-0.648001 2.92,-1.607 4.084,-2.783001c1.166,-1.174 2.1,-2.58 2.726999,-4.108c0.627001,-1.528999 0.947001,-3.181 0.938,-4.832c0.006001,-1.651 -0.310999,-3.302999 -0.938999,-4.832c-0.625,-1.528 -1.559,-2.932 -2.725,-4.107c-1.166,-1.174 -2.552999,-2.135 -4.084,-2.784c-1.527,-0.653 -3.188,-0.997 -4.856001,-1.011c-1.666999,-0.018 -3.341,0.294 -4.891999,0.921c-1.553,0.628 -2.987,1.56 -4.179,2.743s-2.153,2.602 -2.802,4.153c-0.651,1.552 -0.988,3.231 -0.994,4.919l0,-0.002z" id="svg_3"/>
  </g>
 </g>
</svg>